<svg width="24" height="24" viewBox="0 0 24 24" fill="none" xmlns="http://www.w3.org/2000/svg">
<rect width="24" height="24" fill="white"/>
<mask id="mask0_39_2268" style="mask-type:alpha" maskUnits="userSpaceOnUse" x="0" y="0" width="24" height="24">
<rect width="24" height="24" fill="white"/>
</mask>
<g mask="url(#mask0_39_2268)">
<path opacity="0.3" d="M22 12C22 17.5228 17.5228 22 12 22C6.47715 22 2 17.5228 2 12C2 6.47715 6.47715 2 12 2C17.5228 2 22 6.47715 22 12Z" stroke="#006CFF" stroke-width="2"/>
<path fill-rule="evenodd" clip-rule="evenodd" d="M10.556 12.9462C11.3371 13.7272 12.6034 13.7272 13.3845 12.9462L22.0378 4.29289C22.4283 3.90237 23.0615 3.90237 23.452 4.29289C23.8425 4.68342 23.8425 5.31658 23.452 5.70711L12.6738 16.4853C12.2833 16.8758 11.6501 16.8758 11.2596 16.4853C11.2355 16.4612 11.2129 16.4362 11.1918 16.4104L7.29289 12.5115C6.90237 12.1209 6.90237 11.4878 7.29289 11.0973C7.68342 10.7067 8.31658 10.7067 8.70711 11.0973L10.556 12.9462Z" fill="#006CFF"/>
</g>
</svg>
